<svg xmlns="http://www.w3.org/2000/svg" viewBox="0 0 1009.83 137.76"><defs><style>.cls-1{fill:#0079bf;}.cls-2{fill:#676767;}.cls-3{fill:none;}.cls-4{fill:#fff;}.cls-5{fill:#0c7ec3;}.cls-6{fill:#6b6d6c;}.cls-7{fill:#98c338;}</style></defs><g id="Layer_2" data-name="Layer 2"><g id="Layer_1-2" data-name="Layer 1"><path class="cls-1" d="M170.61,68.49c0-24.79,13.9-38.19,32.49-38.19,17.19,0,25.38,9.5,28.68,23l-11.89,3.4c-2.8-9.79-7.1-14.79-16.89-14.79-12.5,0-19.79,9.69-19.79,26.49,0,17.59,7.49,27.28,20,27.28,9.59,0,15-4.8,17.79-15.89l11.89,2.7c-3.6,14.69-12.69,24.59-29.78,24.59C184.11,107.07,170.61,94,170.61,68.49Z"/><path class="cls-1" d="M241,92.87c0-11.49,9.8-19.19,34.58-22V69.29c0-5.3-2.79-7.6-8.69-7.6-7.4,0-13.39,3.6-17.89,7.2l-6-7.7a38,38,0,0,1,25.59-9.6c14.19,0,19.09,6.8,19.09,19.19V92.67c0,6.4.4,10.3,1.5,13h-12.4a19.24,19.24,0,0,1-1.2-6.8c-5.39,5.5-11.69,7.6-19.58,7.6C247.37,106.47,241,101.67,241,92.87Zm34.58-2V79.18c-14.69,2-22.48,5.6-22.48,11.39,0,4.2,2.9,6.4,7.39,6.4A21.16,21.16,0,0,0,275.55,90.87Z"/><path class="cls-1" d="M300.84,52.59h12.29v7a21.44,21.44,0,0,1,16.89-8c12.1,0,21,9.1,21,27.49s-9.09,27.39-22.69,27.39a20.24,20.24,0,0,1-15.19-6.7v25.89H300.84Zm37.88,26.59c0-11.19-4.8-17.09-12.7-17.09-5.09,0-10,3.2-12.89,6.69V90.07a16.2,16.2,0,0,0,12.49,6.6C334.92,96.67,338.72,91,338.72,79.18Z"/><path class="cls-1" d="M362.3,32.7h12.6V43.4H362.3Zm.1,19.89h12.4v53.08H362.4Z"/><path class="cls-1" d="M389.59,31.7H402v74H389.59Z"/><path class="cls-1" d="M416.77,31.7h12.39v74H416.77Z"/><path class="cls-1" d="M440.06,92.87c0-11.49,9.79-19.19,34.58-22V69.29c0-5.3-2.8-7.6-8.7-7.6-7.39,0-13.39,3.6-17.89,7.2l-6-7.7a38,38,0,0,1,25.59-9.6c14.19,0,19.09,6.8,19.09,19.19V92.67c0,6.4.4,10.3,1.5,13H475.84a19.24,19.24,0,0,1-1.2-6.8c-5.4,5.5-11.7,7.6-19.59,7.6C446.45,106.47,440.06,101.67,440.06,92.87Zm34.58-2V79.18c-14.7,2-22.49,5.6-22.49,11.39,0,4.2,2.9,6.4,7.39,6.4A21.2,21.2,0,0,0,474.64,90.87Z"/><path class="cls-1" d="M499.92,52.59h12.29v8.7h.2c3.3-5.3,9-9.7,19.09-9.7h.8l-.4,11.3c-.6-.1-2.59-.2-3.29-.2-7.9,0-12.9,3.7-16.4,9.39v33.59H499.92Z"/><path class="cls-1" d="M535.1,124.66l2.8-9.9a35.35,35.35,0,0,0,9,1.1c4.4,0,6.7-1.7,8.4-6l1.5-3.89L536.4,52.59h12.79l13.69,38.68h.2l13.6-38.68h12.19l-22.59,58.87c-3.5,9.3-8.09,14.8-18.59,14.8A44.47,44.47,0,0,1,535.1,124.66Z"/><path class="cls-2" d="M595.36,68.39c0-23.09,12.9-38.09,31.39-38.09,15.69,0,24,9.1,27.38,22.69l-8.39,2.3c-3.2-11.19-8.3-16.89-19.09-16.89-13.79,0-22.39,11.6-22.39,29.89,0,19.58,8.79,30.78,22.59,30.78,10.49,0,17-5.9,20.09-17.89l8.29,1.9c-3.59,14.59-13,24-28.48,24C608,107.07,595.36,92.57,595.36,68.39Z"/><path class="cls-2" d="M663.93,79.28c0-18.19,11.59-27.49,24.58-27.49S713,61.09,713,79.28s-11.59,27.49-24.49,27.49S663.93,97.37,663.93,79.28Zm40.37,0c0-11-5.29-20.09-15.79-20.09-10.09,0-15.89,8.2-15.89,20.09,0,11.19,5.2,20.19,15.89,20.19C698.51,99.47,704.3,91.37,704.3,79.28Z"/><path class="cls-2" d="M725.19,52.89h8.7v7.9c4.59-4.5,11.19-9,19.79-9,10.09,0,15.59,5.8,15.59,15.8v38.08h-8.6V69.48c0-7-3-10.29-9.69-10.29-6.3,0-11.6,3.3-17.09,8.5v38h-8.7Z"/><path class="cls-2" d="M781,79.28c0-19.29,12.39-27.49,24.19-27.49s17.49,7,20.69,14.8l-7.3,3c-2.6-6.79-6.7-10.49-13.59-10.49-7.6,0-15.3,5.3-15.3,20.19,0,13,6.2,20.29,15.1,20.29,6.69,0,10.79-2.9,14.19-10.6l7.09,2.8c-4.09,8.8-10.19,15-21.58,15C792.25,106.77,781,97.37,781,79.28Z"/><path class="cls-2" d="M837.53,52.89h8.59v9.8h.2c3.9-6.1,10.1-10.9,20.39-10.9h1.1l-.6,8a20.9,20.9,0,0,0-2.5-.1c-8.39,0-14.69,4.4-18.59,11.89v34.09h-8.59Z"/><path class="cls-2" d="M871.81,79.28c0-19.19,12.79-27.49,23.88-27.49,12.5,0,22,8.8,22,27.89v1.8H880.4c.3,11.89,7.2,18.29,15.89,18.29,7.6,0,11.9-3.1,15.9-8.6l5,4.4c-4.89,7-11.59,11.2-21.49,11.2C883.2,106.77,871.81,97.67,871.81,79.28Zm37.68-4.5c-.7-9.39-5.2-15.79-13.9-15.79-7.09,0-13.79,4.9-15,15.79Z"/><path class="cls-2" d="M933.77,92.87V60h-9.19v-7.1h9.19V34.1h8.6V52.89h13.69V60H942.37V91c0,5.6,1.8,8.4,8.19,8.4a21.45,21.45,0,0,0,5.4-.7v7.1a47.23,47.23,0,0,1-7.5.6C937.37,106.37,933.77,102.07,933.77,92.87Z"/><path class="cls-2" d="M964,79.28c0-19.19,12.8-27.49,23.89-27.49,12.5,0,22,8.8,22,27.89v1.8H972.55c.3,11.89,7.2,18.29,15.89,18.29,7.6,0,11.9-3.1,15.89-8.6l5,4.4c-4.9,7-11.59,11.2-21.49,11.2C975.35,106.77,964,97.67,964,79.28Zm37.68-4.5c-.69-9.39-5.19-15.79-13.89-15.79-7.09,0-13.79,4.9-15,15.79Z"/><path class="cls-3" d="M82.42,110.84l-.55.16Z"/><path class="cls-3" d="M84.4,110.19l-.33.11Z"/><path class="cls-3" d="M86.3,109.47l-.07,0Z"/><path class="cls-3" d="M80.39,111.4c-.25.07-.51.12-.76.18C79.88,111.52,80.14,111.47,80.39,111.4Z"/><path class="cls-4" d="M69.51,0h0V.29A2.83,2.83,0,0,0,69.51,0Z"/><path class="cls-4" d="M86.23,109.5c-.6.24-1.22.47-1.83.69Q85.32,109.86,86.23,109.5Z"/><path class="cls-4" d="M81.87,111c-.49.14-1,.28-1.48.4C80.89,111.28,81.38,111.14,81.87,111Z"/><path class="cls-4" d="M84.07,110.3c-.55.19-1.09.37-1.65.54C83,110.67,83.52,110.49,84.07,110.3Z"/><polygon class="cls-5" points="69.51 0 69.51 0 69.51 0 69.51 0"/><path class="cls-6" d="M52.75,109.49l-.06,0Z"/><path class="cls-6" d="M54.91,110.3l-.32-.11Z"/><path class="cls-6" d="M57.1,111l-.53-.15Z"/><path class="cls-6" d="M59.35,111.58l-.75-.18Z"/><path class="cls-7" d="M55.08.17A69.53,69.53,0,0,0,0,65.67H24.72c.8-16.42,10.13-30,18.42-42.11C49,15.09,55,6.34,55.08.17Z"/><path class="cls-6" d="M54.59,110.19c-.62-.22-1.23-.45-1.84-.7C53.36,109.74,54,110,54.59,110.19Z"/><path class="cls-6" d="M56.57,110.84c-.56-.17-1.11-.35-1.66-.54C55.46,110.49,56,110.67,56.57,110.84Z"/><path class="cls-6" d="M58.6,111.4c-.5-.12-1-.26-1.5-.41C57.6,111.14,58.1,111.28,58.6,111.4Z"/><path class="cls-6" d="M25,70.72h-.27a44.93,44.93,0,0,0,28,38.75A44.58,44.58,0,0,1,25,70.72Z"/><path class="cls-6" d="M86.25,109.49l.06,0Z"/><path class="cls-2" d="M114.24,70.72A44.92,44.92,0,0,1,86.3,109.48l-.06,0c-.61.24-1.22.48-1.85.7l-.31.11c-.55.19-1.1.37-1.66.54l-.54.15-1.49.41-.75.17c-.45.11-.89.21-1.34.3l-1,.17c-.4.07-.79.15-1.19.21L75,112.4l-1,.13c-.45,0-.91.07-1.37.1l-.85.07c-.75,0-1.5,0-2.25,0h0q-1.14,0-2.25-.06c-.29,0-.57,0-.85-.06-.46,0-.92-.06-1.38-.11s-.69-.08-1-.12-.77-.09-1.14-.15l-1.19-.2-1-.17c-.45-.09-.9-.2-1.34-.3l-.75-.18c-.5-.12-1-.26-1.5-.41l-.53-.15c-.56-.17-1.11-.35-1.66-.54l-.32-.11c-.62-.22-1.23-.45-1.84-.7l-.06,0A44.93,44.93,0,0,1,24.74,70.72H0a69.54,69.54,0,0,0,69.49,67h0a69.55,69.55,0,0,0,69.5-67Z"/><path class="cls-7" d="M83.91.17A69.58,69.58,0,0,1,139,65.68H114.26c-.79-16.43-10.12-30-18.42-42.11C90,15.1,84,6.35,83.91.17Z"/><path class="cls-6" d="M84.41,110.19c.62-.22,1.24-.45,1.84-.7C85.64,109.74,85,110,84.41,110.19Z"/><path class="cls-6" d="M114,70.72h.27a44.93,44.93,0,0,1-27.95,38.75A44.58,44.58,0,0,0,114,70.72Z"/><path class="cls-1" d="M69.49.29c0,20.94-29.71,41.58-29.71,66.95A29.71,29.71,0,0,0,69.49,97c1,0,2,0,3-.15A29.71,29.71,0,0,0,99.21,67.24C99.21,41.87,69.49,21.23,69.49.29Z"/></g></g></svg>